# Original Sprocket ERA geometry; metres; Y native mounting normal.
g mount
v -0.1850000 0.0000000 -0.1425000
v -0.1550000 0.0000000 -0.1425000
v -0.1550000 0.0080000 -0.1425000
v -0.1850000 0.0080000 -0.1425000
v -0.1850000 0.0000000 -0.1075000
v -0.1550000 0.0000000 -0.1075000
v -0.1550000 0.0080000 -0.1075000
v -0.1850000 0.0080000 -0.1075000
f 1 4 3
f 1 3 2
f 5 6 7
f 5 7 8
f 1 5 8
f 1 8 4
f 2 3 7
f 2 7 6
f 1 2 6
f 1 6 5
f 4 8 7
f 4 7 3
v -0.1660000 0.0080000 -0.1330000
v -0.1500000 0.0080000 -0.1330000
v -0.1500000 0.0330000 -0.1330000
v -0.1660000 0.0330000 -0.1330000
v -0.1660000 0.0080000 -0.1170000
v -0.1500000 0.0080000 -0.1170000
v -0.1500000 0.0330000 -0.1170000
v -0.1660000 0.0330000 -0.1170000
f 9 12 11
f 9 11 10
f 13 14 15
f 13 15 16
f 9 13 16
f 9 16 12
f 10 11 15
f 10 15 14
f 9 10 14
f 9 14 13
f 12 16 15
f 12 15 11
v -0.1700000 0.0080000 -0.1250000
v -0.1745000 0.0080000 -0.1172058
v -0.1835000 0.0080000 -0.1172058
v -0.1880000 0.0080000 -0.1250000
v -0.1835000 0.0080000 -0.1327942
v -0.1745000 0.0080000 -0.1327942
v -0.1700000 0.0140000 -0.1250000
v -0.1745000 0.0140000 -0.1172058
v -0.1835000 0.0140000 -0.1172058
v -0.1880000 0.0140000 -0.1250000
v -0.1835000 0.0140000 -0.1327942
v -0.1745000 0.0140000 -0.1327942
f 17 18 19
f 17 19 20
f 17 20 21
f 17 21 22
f 28 27 26
f 28 26 25
f 28 25 24
f 28 24 23
f 17 23 24
f 17 24 18
f 18 24 25
f 18 25 19
f 19 25 26
f 19 26 20
f 20 26 27
f 20 27 21
f 21 27 28
f 21 28 22
f 22 28 23
f 22 23 17
v -0.1850000 0.0000000 0.1075000
v -0.1550000 0.0000000 0.1075000
v -0.1550000 0.0080000 0.1075000
v -0.1850000 0.0080000 0.1075000
v -0.1850000 0.0000000 0.1425000
v -0.1550000 0.0000000 0.1425000
v -0.1550000 0.0080000 0.1425000
v -0.1850000 0.0080000 0.1425000
f 29 32 31
f 29 31 30
f 33 34 35
f 33 35 36
f 29 33 36
f 29 36 32
f 30 31 35
f 30 35 34
f 29 30 34
f 29 34 33
f 32 36 35
f 32 35 31
v -0.1660000 0.0080000 0.1170000
v -0.1500000 0.0080000 0.1170000
v -0.1500000 0.0330000 0.1170000
v -0.1660000 0.0330000 0.1170000
v -0.1660000 0.0080000 0.1330000
v -0.1500000 0.0080000 0.1330000
v -0.1500000 0.0330000 0.1330000
v -0.1660000 0.0330000 0.1330000
f 37 40 39
f 37 39 38
f 41 42 43
f 41 43 44
f 37 41 44
f 37 44 40
f 38 39 43
f 38 43 42
f 37 38 42
f 37 42 41
f 40 44 43
f 40 43 39
v -0.1700000 0.0080000 0.1250000
v -0.1745000 0.0080000 0.1327942
v -0.1835000 0.0080000 0.1327942
v -0.1880000 0.0080000 0.1250000
v -0.1835000 0.0080000 0.1172058
v -0.1745000 0.0080000 0.1172058
v -0.1700000 0.0140000 0.1250000
v -0.1745000 0.0140000 0.1327942
v -0.1835000 0.0140000 0.1327942
v -0.1880000 0.0140000 0.1250000
v -0.1835000 0.0140000 0.1172058
v -0.1745000 0.0140000 0.1172058
f 45 46 47
f 45 47 48
f 45 48 49
f 45 49 50
f 56 55 54
f 56 54 53
f 56 53 52
f 56 52 51
f 45 51 52
f 45 52 46
f 46 52 53
f 46 53 47
f 47 53 54
f 47 54 48
f 48 54 55
f 48 55 49
f 49 55 56
f 49 56 50
f 50 56 51
f 50 51 45
v 0.1550000 0.0000000 -0.1425000
v 0.1850000 0.0000000 -0.1425000
v 0.1850000 0.0080000 -0.1425000
v 0.1550000 0.0080000 -0.1425000
v 0.1550000 0.0000000 -0.1075000
v 0.1850000 0.0000000 -0.1075000
v 0.1850000 0.0080000 -0.1075000
v 0.1550000 0.0080000 -0.1075000
f 57 60 59
f 57 59 58
f 61 62 63
f 61 63 64
f 57 61 64
f 57 64 60
f 58 59 63
f 58 63 62
f 57 58 62
f 57 62 61
f 60 64 63
f 60 63 59
v 0.1500000 0.0080000 -0.1330000
v 0.1660000 0.0080000 -0.1330000
v 0.1660000 0.0330000 -0.1330000
v 0.1500000 0.0330000 -0.1330000
v 0.1500000 0.0080000 -0.1170000
v 0.1660000 0.0080000 -0.1170000
v 0.1660000 0.0330000 -0.1170000
v 0.1500000 0.0330000 -0.1170000
f 65 68 67
f 65 67 66
f 69 70 71
f 69 71 72
f 65 69 72
f 65 72 68
f 66 67 71
f 66 71 70
f 65 66 70
f 65 70 69
f 68 72 71
f 68 71 67
v 0.1880000 0.0080000 -0.1250000
v 0.1835000 0.0080000 -0.1172058
v 0.1745000 0.0080000 -0.1172058
v 0.1700000 0.0080000 -0.1250000
v 0.1745000 0.0080000 -0.1327942
v 0.1835000 0.0080000 -0.1327942
v 0.1880000 0.0140000 -0.1250000
v 0.1835000 0.0140000 -0.1172058
v 0.1745000 0.0140000 -0.1172058
v 0.1700000 0.0140000 -0.1250000
v 0.1745000 0.0140000 -0.1327942
v 0.1835000 0.0140000 -0.1327942
f 73 74 75
f 73 75 76
f 73 76 77
f 73 77 78
f 84 83 82
f 84 82 81
f 84 81 80
f 84 80 79
f 73 79 80
f 73 80 74
f 74 80 81
f 74 81 75
f 75 81 82
f 75 82 76
f 76 82 83
f 76 83 77
f 77 83 84
f 77 84 78
f 78 84 79
f 78 79 73
v 0.1550000 0.0000000 0.1075000
v 0.1850000 0.0000000 0.1075000
v 0.1850000 0.0080000 0.1075000
v 0.1550000 0.0080000 0.1075000
v 0.1550000 0.0000000 0.1425000
v 0.1850000 0.0000000 0.1425000
v 0.1850000 0.0080000 0.1425000
v 0.1550000 0.0080000 0.1425000
f 85 88 87
f 85 87 86
f 89 90 91
f 89 91 92
f 85 89 92
f 85 92 88
f 86 87 91
f 86 91 90
f 85 86 90
f 85 90 89
f 88 92 91
f 88 91 87
v 0.1500000 0.0080000 0.1170000
v 0.1660000 0.0080000 0.1170000
v 0.1660000 0.0330000 0.1170000
v 0.1500000 0.0330000 0.1170000
v 0.1500000 0.0080000 0.1330000
v 0.1660000 0.0080000 0.1330000
v 0.1660000 0.0330000 0.1330000
v 0.1500000 0.0330000 0.1330000
f 93 96 95
f 93 95 94
f 97 98 99
f 97 99 100
f 93 97 100
f 93 100 96
f 94 95 99
f 94 99 98
f 93 94 98
f 93 98 97
f 96 100 99
f 96 99 95
v 0.1880000 0.0080000 0.1250000
v 0.1835000 0.0080000 0.1327942
v 0.1745000 0.0080000 0.1327942
v 0.1700000 0.0080000 0.1250000
v 0.1745000 0.0080000 0.1172058
v 0.1835000 0.0080000 0.1172058
v 0.1880000 0.0140000 0.1250000
v 0.1835000 0.0140000 0.1327942
v 0.1745000 0.0140000 0.1327942
v 0.1700000 0.0140000 0.1250000
v 0.1745000 0.0140000 0.1172058
v 0.1835000 0.0140000 0.1172058
f 101 102 103
f 101 103 104
f 101 104 105
f 101 105 106
f 112 111 110
f 112 110 109
f 112 109 108
f 112 108 107
f 101 107 108
f 101 108 102
f 102 108 109
f 102 109 103
f 103 109 110
f 103 110 104
f 104 110 111
f 104 111 105
f 105 111 112
f 105 112 106
f 106 112 107
f 106 107 101
g cassette
v -0.1500000 0.0330000 -0.2206667
v -0.1500000 0.0330000 0.2206667
v -0.1500000 0.1030000 0.2206667
v -0.1500000 0.1030000 -0.2206667
v 0.1500000 0.0330000 -0.2206667
v 0.1500000 0.0330000 0.2206667
v 0.1500000 0.1030000 0.2206667
v 0.1500000 0.1030000 -0.2206667
f 113 114 115
f 113 115 116
f 117 120 119
f 117 119 118
f 113 117 118
f 113 118 114
f 116 115 119
f 116 119 120
f 113 116 120
f 113 120 117
f 114 118 119
f 114 119 115
