# Original Sprocket ERA geometry; metres; Y native mounting normal.
g mount
v -0.1600000 0.0000000 -0.0800000
v 0.1600000 0.0000000 -0.0800000
v 0.1600000 0.0040000 -0.0800000
v -0.1600000 0.0040000 -0.0800000
v -0.1600000 0.0000000 0.0800000
v 0.1600000 0.0000000 0.0800000
v 0.1600000 0.0040000 0.0800000
v -0.1600000 0.0040000 0.0800000
f 1 4 3
f 1 3 2
f 5 6 7
f 5 7 8
f 1 5 8
f 1 8 4
f 2 3 7
f 2 7 6
f 1 2 6
f 1 6 5
f 4 8 7
f 4 7 3
v -0.1500000 0.0040000 -0.0700000
v 0.1500000 0.0040000 -0.0700000
v 0.1500000 0.0123295 -0.0700000
v -0.1500000 0.0123295 -0.0700000
v -0.1500000 0.0040000 -0.0600000
v 0.1500000 0.0040000 -0.0600000
v 0.1500000 0.0123295 -0.0600000
v -0.1500000 0.0123295 -0.0600000
f 9 12 11
f 9 11 10
f 13 14 15
f 13 15 16
f 9 13 16
f 9 16 12
f 10 11 15
f 10 15 14
f 9 10 14
f 9 14 13
f 12 16 15
f 12 15 11
v -0.1500000 0.0040000 0.0600000
v 0.1500000 0.0040000 0.0600000
v 0.1500000 0.0123295 0.0600000
v -0.1500000 0.0123295 0.0600000
v -0.1500000 0.0040000 0.0700000
v 0.1500000 0.0040000 0.0700000
v 0.1500000 0.0123295 0.0700000
v -0.1500000 0.0123295 0.0700000
f 17 20 19
f 17 19 18
f 21 22 23
f 21 23 24
f 17 21 24
f 17 24 20
f 18 19 23
f 18 23 22
f 17 18 22
f 17 22 21
f 20 24 23
f 20 23 19
v -0.1650000 0.0060000 -0.0670000
v -0.1350000 0.0060000 -0.0670000
v -0.1350000 0.0120000 -0.0670000
v -0.1650000 0.0120000 -0.0670000
v -0.1650000 0.0060000 -0.0370000
v -0.1350000 0.0060000 -0.0370000
v -0.1350000 0.0120000 -0.0370000
v -0.1650000 0.0120000 -0.0370000
f 25 28 27
f 25 27 26
f 29 30 31
f 29 31 32
f 25 29 32
f 25 32 28
f 26 27 31
f 26 31 30
f 25 26 30
f 25 30 29
f 28 32 31
f 28 31 27
v -0.1420000 0.0120000 -0.0520000
v -0.1460000 0.0120000 -0.0450718
v -0.1540000 0.0120000 -0.0450718
v -0.1580000 0.0120000 -0.0520000
v -0.1540000 0.0120000 -0.0589282
v -0.1460000 0.0120000 -0.0589282
v -0.1420000 0.0180000 -0.0520000
v -0.1460000 0.0180000 -0.0450718
v -0.1540000 0.0180000 -0.0450718
v -0.1580000 0.0180000 -0.0520000
v -0.1540000 0.0180000 -0.0589282
v -0.1460000 0.0180000 -0.0589282
f 33 34 35
f 33 35 36
f 33 36 37
f 33 37 38
f 44 43 42
f 44 42 41
f 44 41 40
f 44 40 39
f 33 39 40
f 33 40 34
f 34 40 41
f 34 41 35
f 35 41 42
f 35 42 36
f 36 42 43
f 36 43 37
f 37 43 44
f 37 44 38
f 38 44 39
f 38 39 33
v -0.1650000 0.0060000 0.0370000
v -0.1350000 0.0060000 0.0370000
v -0.1350000 0.0120000 0.0370000
v -0.1650000 0.0120000 0.0370000
v -0.1650000 0.0060000 0.0670000
v -0.1350000 0.0060000 0.0670000
v -0.1350000 0.0120000 0.0670000
v -0.1650000 0.0120000 0.0670000
f 45 48 47
f 45 47 46
f 49 50 51
f 49 51 52
f 45 49 52
f 45 52 48
f 46 47 51
f 46 51 50
f 45 46 50
f 45 50 49
f 48 52 51
f 48 51 47
v -0.1420000 0.0120000 0.0520000
v -0.1460000 0.0120000 0.0589282
v -0.1540000 0.0120000 0.0589282
v -0.1580000 0.0120000 0.0520000
v -0.1540000 0.0120000 0.0450718
v -0.1460000 0.0120000 0.0450718
v -0.1420000 0.0180000 0.0520000
v -0.1460000 0.0180000 0.0589282
v -0.1540000 0.0180000 0.0589282
v -0.1580000 0.0180000 0.0520000
v -0.1540000 0.0180000 0.0450718
v -0.1460000 0.0180000 0.0450718
f 53 54 55
f 53 55 56
f 53 56 57
f 53 57 58
f 64 63 62
f 64 62 61
f 64 61 60
f 64 60 59
f 53 59 60
f 53 60 54
f 54 60 61
f 54 61 55
f 55 61 62
f 55 62 56
f 56 62 63
f 56 63 57
f 57 63 64
f 57 64 58
f 58 64 59
f 58 59 53
v 0.1350000 0.0060000 -0.0670000
v 0.1650000 0.0060000 -0.0670000
v 0.1650000 0.0120000 -0.0670000
v 0.1350000 0.0120000 -0.0670000
v 0.1350000 0.0060000 -0.0370000
v 0.1650000 0.0060000 -0.0370000
v 0.1650000 0.0120000 -0.0370000
v 0.1350000 0.0120000 -0.0370000
f 65 68 67
f 65 67 66
f 69 70 71
f 69 71 72
f 65 69 72
f 65 72 68
f 66 67 71
f 66 71 70
f 65 66 70
f 65 70 69
f 68 72 71
f 68 71 67
v 0.1580000 0.0120000 -0.0520000
v 0.1540000 0.0120000 -0.0450718
v 0.1460000 0.0120000 -0.0450718
v 0.1420000 0.0120000 -0.0520000
v 0.1460000 0.0120000 -0.0589282
v 0.1540000 0.0120000 -0.0589282
v 0.1580000 0.0180000 -0.0520000
v 0.1540000 0.0180000 -0.0450718
v 0.1460000 0.0180000 -0.0450718
v 0.1420000 0.0180000 -0.0520000
v 0.1460000 0.0180000 -0.0589282
v 0.1540000 0.0180000 -0.0589282
f 73 74 75
f 73 75 76
f 73 76 77
f 73 77 78
f 84 83 82
f 84 82 81
f 84 81 80
f 84 80 79
f 73 79 80
f 73 80 74
f 74 80 81
f 74 81 75
f 75 81 82
f 75 82 76
f 76 82 83
f 76 83 77
f 77 83 84
f 77 84 78
f 78 84 79
f 78 79 73
v 0.1350000 0.0060000 0.0370000
v 0.1650000 0.0060000 0.0370000
v 0.1650000 0.0120000 0.0370000
v 0.1350000 0.0120000 0.0370000
v 0.1350000 0.0060000 0.0670000
v 0.1650000 0.0060000 0.0670000
v 0.1650000 0.0120000 0.0670000
v 0.1350000 0.0120000 0.0670000
f 85 88 87
f 85 87 86
f 89 90 91
f 89 91 92
f 85 89 92
f 85 92 88
f 86 87 91
f 86 91 90
f 85 86 90
f 85 90 89
f 88 92 91
f 88 91 87
v 0.1580000 0.0120000 0.0520000
v 0.1540000 0.0120000 0.0589282
v 0.1460000 0.0120000 0.0589282
v 0.1420000 0.0120000 0.0520000
v 0.1460000 0.0120000 0.0450718
v 0.1540000 0.0120000 0.0450718
v 0.1580000 0.0180000 0.0520000
v 0.1540000 0.0180000 0.0589282
v 0.1460000 0.0180000 0.0589282
v 0.1420000 0.0180000 0.0520000
v 0.1460000 0.0180000 0.0450718
v 0.1540000 0.0180000 0.0450718
f 93 94 95
f 93 95 96
f 93 96 97
f 93 97 98
f 104 103 102
f 104 102 101
f 104 101 100
f 104 100 99
f 93 99 100
f 93 100 94
f 94 100 101
f 94 101 95
f 95 101 102
f 95 102 96
f 96 102 103
f 96 103 97
f 97 103 104
f 97 104 98
f 98 104 99
f 98 99 93
g cassette
v -0.1500000 0.0200000 -0.0700000
v 0.1500000 0.0200000 -0.0700000
v 0.1500000 0.0500000 -0.0700000
v -0.1500000 0.0500000 -0.0700000
v -0.1500000 0.0200000 0.0700000
v 0.1500000 0.0200000 0.0700000
v 0.1500000 0.0500000 0.0700000
v -0.1500000 0.0500000 0.0700000
f 105 108 107
f 105 107 106
f 109 110 111
f 109 111 112
f 105 109 112
f 105 112 108
f 106 107 111
f 106 111 110
f 105 106 110
f 105 110 109
f 108 112 111
f 108 111 107
v -0.1450000 0.0500000 -0.0650000
v 0.1450000 0.0500000 -0.0650000
v 0.1450000 0.0560000 -0.0650000
v -0.1450000 0.0560000 -0.0650000
v -0.1450000 0.0500000 0.0650000
v 0.1450000 0.0500000 0.0650000
v 0.1450000 0.0560000 0.0650000
v -0.1450000 0.0560000 0.0650000
f 113 116 115
f 113 115 114
f 117 118 119
f 117 119 120
f 113 117 120
f 113 120 116
f 114 115 119
f 114 119 118
f 113 114 118
f 113 118 117
f 116 120 119
f 116 119 115
v -0.0040000 0.0560000 -0.0650000
v 0.0040000 0.0560000 -0.0650000
v 0.0040000 0.0600000 -0.0650000
v -0.0040000 0.0600000 -0.0650000
v -0.0040000 0.0560000 0.0650000
v 0.0040000 0.0560000 0.0650000
v 0.0040000 0.0600000 0.0650000
v -0.0040000 0.0600000 0.0650000
f 121 124 123
f 121 123 122
f 125 126 127
f 125 127 128
f 121 125 128
f 121 128 124
f 122 123 127
f 122 127 126
f 121 122 126
f 121 126 125
f 124 128 127
f 124 127 123
