# Original Sprocket ERA geometry; metres; Y native mounting normal.
g mount
v -0.2500000 0.0000000 -0.1500000
v 0.2500000 0.0000000 -0.1500000
v 0.2500000 0.0160000 -0.1500000
v -0.2500000 0.0160000 -0.1500000
v -0.2500000 0.0000000 0.1500000
v 0.2500000 0.0000000 0.1500000
v 0.2500000 0.0160000 0.1500000
v -0.2500000 0.0160000 0.1500000
f 1 4 3
f 1 3 2
f 5 6 7
f 5 7 8
f 1 5 8
f 1 8 4
f 2 3 7
f 2 7 6
f 1 2 6
f 1 6 5
f 4 8 7
f 4 7 3
v -0.2280000 0.0080000 -0.1450000
v -0.2020000 0.0080000 -0.1450000
v -0.2020000 0.0500000 -0.1450000
v -0.2280000 0.0500000 -0.1450000
v -0.2280000 0.0080000 0.1450000
v -0.2020000 0.0080000 0.1450000
v -0.2020000 0.0500000 0.1450000
v -0.2280000 0.0500000 0.1450000
f 9 12 11
f 9 11 10
f 13 14 15
f 13 15 16
f 9 13 16
f 9 16 12
f 10 11 15
f 10 15 14
f 9 10 14
f 9 14 13
f 12 16 15
f 12 15 11
v 0.2020000 0.0080000 -0.1450000
v 0.2280000 0.0080000 -0.1450000
v 0.2280000 0.0500000 -0.1450000
v 0.2020000 0.0500000 -0.1450000
v 0.2020000 0.0080000 0.1450000
v 0.2280000 0.0080000 0.1450000
v 0.2280000 0.0500000 0.1450000
v 0.2020000 0.0500000 0.1450000
f 17 20 19
f 17 19 18
f 21 22 23
f 21 23 24
f 17 21 24
f 17 24 20
f 18 19 23
f 18 23 22
f 17 18 22
f 17 22 21
f 20 24 23
f 20 23 19
v -0.2080000 0.0160000 -0.1200000
v -0.2140000 0.0160000 -0.1096077
v -0.2260000 0.0160000 -0.1096077
v -0.2320000 0.0160000 -0.1200000
v -0.2260000 0.0160000 -0.1303923
v -0.2140000 0.0160000 -0.1303923
v -0.2080000 0.0240000 -0.1200000
v -0.2140000 0.0240000 -0.1096077
v -0.2260000 0.0240000 -0.1096077
v -0.2320000 0.0240000 -0.1200000
v -0.2260000 0.0240000 -0.1303923
v -0.2140000 0.0240000 -0.1303923
f 25 26 27
f 25 27 28
f 25 28 29
f 25 29 30
f 36 35 34
f 36 34 33
f 36 33 32
f 36 32 31
f 25 31 32
f 25 32 26
f 26 32 33
f 26 33 27
f 27 33 34
f 27 34 28
f 28 34 35
f 28 35 29
f 29 35 36
f 29 36 30
f 30 36 31
f 30 31 25
v -0.2080000 0.0160000 0.1200000
v -0.2140000 0.0160000 0.1303923
v -0.2260000 0.0160000 0.1303923
v -0.2320000 0.0160000 0.1200000
v -0.2260000 0.0160000 0.1096077
v -0.2140000 0.0160000 0.1096077
v -0.2080000 0.0240000 0.1200000
v -0.2140000 0.0240000 0.1303923
v -0.2260000 0.0240000 0.1303923
v -0.2320000 0.0240000 0.1200000
v -0.2260000 0.0240000 0.1096077
v -0.2140000 0.0240000 0.1096077
f 37 38 39
f 37 39 40
f 37 40 41
f 37 41 42
f 48 47 46
f 48 46 45
f 48 45 44
f 48 44 43
f 37 43 44
f 37 44 38
f 38 44 45
f 38 45 39
f 39 45 46
f 39 46 40
f 40 46 47
f 40 47 41
f 41 47 48
f 41 48 42
f 42 48 43
f 42 43 37
v 0.2320000 0.0160000 -0.1200000
v 0.2260000 0.0160000 -0.1096077
v 0.2140000 0.0160000 -0.1096077
v 0.2080000 0.0160000 -0.1200000
v 0.2140000 0.0160000 -0.1303923
v 0.2260000 0.0160000 -0.1303923
v 0.2320000 0.0240000 -0.1200000
v 0.2260000 0.0240000 -0.1096077
v 0.2140000 0.0240000 -0.1096077
v 0.2080000 0.0240000 -0.1200000
v 0.2140000 0.0240000 -0.1303923
v 0.2260000 0.0240000 -0.1303923
f 49 50 51
f 49 51 52
f 49 52 53
f 49 53 54
f 60 59 58
f 60 58 57
f 60 57 56
f 60 56 55
f 49 55 56
f 49 56 50
f 50 56 57
f 50 57 51
f 51 57 58
f 51 58 52
f 52 58 59
f 52 59 53
f 53 59 60
f 53 60 54
f 54 60 55
f 54 55 49
v 0.2320000 0.0160000 0.1200000
v 0.2260000 0.0160000 0.1303923
v 0.2140000 0.0160000 0.1303923
v 0.2080000 0.0160000 0.1200000
v 0.2140000 0.0160000 0.1096077
v 0.2260000 0.0160000 0.1096077
v 0.2320000 0.0240000 0.1200000
v 0.2260000 0.0240000 0.1303923
v 0.2140000 0.0240000 0.1303923
v 0.2080000 0.0240000 0.1200000
v 0.2140000 0.0240000 0.1096077
v 0.2260000 0.0240000 0.1096077
f 61 62 63
f 61 63 64
f 61 64 65
f 61 65 66
f 72 71 70
f 72 70 69
f 72 69 68
f 72 68 67
f 61 67 68
f 61 68 62
f 62 68 69
f 62 69 63
f 63 69 70
f 63 70 64
f 64 70 71
f 64 71 65
f 65 71 72
f 65 72 66
f 66 72 67
f 66 67 61
g cassette
v -0.2120000 0.0260000 -0.1300000
v 0.2120000 0.0260000 -0.1300000
v 0.2120000 0.0840000 -0.1300000
v -0.2120000 0.0840000 -0.1300000
v -0.2120000 0.0260000 0.1300000
v 0.2120000 0.0260000 0.1300000
v 0.2120000 0.0840000 0.1300000
v -0.2120000 0.0840000 0.1300000
f 73 76 75
f 73 75 74
f 77 78 79
f 77 79 80
f 73 77 80
f 73 80 76
f 74 75 79
f 74 79 78
f 73 74 78
f 73 78 77
f 76 80 79
f 76 79 75
v -0.2000000 0.0840000 -0.1190000
v 0.2000000 0.0840000 -0.1190000
v 0.2000000 0.0910000 -0.1190000
v -0.2000000 0.0910000 -0.1190000
v -0.2000000 0.0840000 0.1190000
v 0.2000000 0.0840000 0.1190000
v 0.2000000 0.0910000 0.1190000
v -0.2000000 0.0910000 0.1190000
f 81 84 83
f 81 83 82
f 85 86 87
f 85 87 88
f 81 85 88
f 81 88 84
f 82 83 87
f 82 87 86
f 81 82 86
f 81 86 85
f 84 88 87
f 84 87 83
v -0.0040000 0.0910000 -0.1190000
v 0.0040000 0.0910000 -0.1190000
v 0.0040000 0.0960000 -0.1190000
v -0.0040000 0.0960000 -0.1190000
v -0.0040000 0.0910000 0.1190000
v 0.0040000 0.0910000 0.1190000
v 0.0040000 0.0960000 0.1190000
v -0.0040000 0.0960000 0.1190000
f 89 92 91
f 89 91 90
f 93 94 95
f 93 95 96
f 89 93 96
f 89 96 92
f 90 91 95
f 90 95 94
f 89 90 94
f 89 94 93
f 92 96 95
f 92 95 91
v -0.1965000 0.0910000 -0.1200000
v -0.1815000 0.0910000 -0.1200000
v -0.1815000 0.0960000 -0.1200000
v -0.1965000 0.0960000 -0.1200000
v -0.1965000 0.0910000 0.1200000
v -0.1815000 0.0910000 0.1200000
v -0.1815000 0.0960000 0.1200000
v -0.1965000 0.0960000 0.1200000
f 97 100 99
f 97 99 98
f 101 102 103
f 101 103 104
f 97 101 104
f 97 104 100
f 98 99 103
f 98 103 102
f 97 98 102
f 97 102 101
f 100 104 103
f 100 103 99
v 0.1815000 0.0910000 -0.1200000
v 0.1965000 0.0910000 -0.1200000
v 0.1965000 0.0960000 -0.1200000
v 0.1815000 0.0960000 -0.1200000
v 0.1815000 0.0910000 0.1200000
v 0.1965000 0.0910000 0.1200000
v 0.1965000 0.0960000 0.1200000
v 0.1815000 0.0960000 0.1200000
f 105 108 107
f 105 107 106
f 109 110 111
f 109 111 112
f 105 109 112
f 105 112 108
f 106 107 111
f 106 111 110
f 105 106 110
f 105 110 109
f 108 112 111
f 108 111 107
