# Original Sprocket ERA geometry; metres; Y native mounting normal.
g mount
v -0.2590000 0.0000000 -0.1030000
v -0.2130000 0.0000000 -0.1030000
v -0.2130000 0.0060000 -0.1030000
v -0.2590000 0.0060000 -0.1030000
v -0.2590000 0.0000000 -0.0530000
v -0.2130000 0.0000000 -0.0530000
v -0.2130000 0.0060000 -0.0530000
v -0.2590000 0.0060000 -0.0530000
f 1 4 3
f 1 3 2
f 5 6 7
f 5 7 8
f 1 5 8
f 1 8 4
f 2 3 7
f 2 7 6
f 1 2 6
f 1 6 5
f 4 8 7
f 4 7 3
v -0.2320000 0.0060000 -0.0940000
v -0.2200000 0.0060000 -0.0940000
v -0.2200000 0.0080000 -0.0940000
v -0.2320000 0.0080000 -0.0940000
v -0.2320000 0.0060000 -0.0620000
v -0.2200000 0.0060000 -0.0620000
v -0.2200000 0.0080000 -0.0620000
v -0.2320000 0.0080000 -0.0620000
f 9 12 11
f 9 11 10
f 13 14 15
f 13 15 16
f 9 13 16
f 9 16 12
f 10 11 15
f 10 15 14
f 9 10 14
f 9 14 13
f 12 16 15
f 12 15 11
v -0.2160000 0.0180000 -0.0960000
v -0.2173397 0.0130000 -0.0960000
v -0.2210000 0.0093397 -0.0960000
v -0.2260000 0.0080000 -0.0960000
v -0.2310000 0.0093397 -0.0960000
v -0.2346603 0.0130000 -0.0960000
v -0.2360000 0.0180000 -0.0960000
v -0.2346603 0.0230000 -0.0960000
v -0.2310000 0.0266603 -0.0960000
v -0.2260000 0.0280000 -0.0960000
v -0.2210000 0.0266603 -0.0960000
v -0.2173397 0.0230000 -0.0960000
v -0.2160000 0.0180000 -0.0600000
v -0.2173397 0.0130000 -0.0600000
v -0.2210000 0.0093397 -0.0600000
v -0.2260000 0.0080000 -0.0600000
v -0.2310000 0.0093397 -0.0600000
v -0.2346603 0.0130000 -0.0600000
v -0.2360000 0.0180000 -0.0600000
v -0.2346603 0.0230000 -0.0600000
v -0.2310000 0.0266603 -0.0600000
v -0.2260000 0.0280000 -0.0600000
v -0.2210000 0.0266603 -0.0600000
v -0.2173397 0.0230000 -0.0600000
f 17 18 19
f 17 19 20
f 17 20 21
f 17 21 22
f 17 22 23
f 17 23 24
f 17 24 25
f 17 25 26
f 17 26 27
f 17 27 28
f 40 39 38
f 40 38 37
f 40 37 36
f 40 36 35
f 40 35 34
f 40 34 33
f 40 33 32
f 40 32 31
f 40 31 30
f 40 30 29
f 17 29 30
f 17 30 18
f 18 30 31
f 18 31 19
f 19 31 32
f 19 32 20
f 20 32 33
f 20 33 21
f 21 33 34
f 21 34 22
f 22 34 35
f 22 35 23
f 23 35 36
f 23 36 24
f 24 36 37
f 24 37 25
f 25 37 38
f 25 38 26
f 26 38 39
f 26 39 27
f 27 39 40
f 27 40 28
f 28 40 29
f 28 29 17
v -0.2160000 0.0120000 -0.0940000
v -0.2120000 0.0120000 -0.0940000
v -0.2120000 0.0240000 -0.0940000
v -0.2160000 0.0240000 -0.0940000
v -0.2160000 0.0120000 -0.0620000
v -0.2120000 0.0120000 -0.0620000
v -0.2120000 0.0240000 -0.0620000
v -0.2160000 0.0240000 -0.0620000
f 41 44 43
f 41 43 42
f 45 46 47
f 45 47 48
f 41 45 48
f 41 48 44
f 42 43 47
f 42 47 46
f 41 42 46
f 41 46 45
f 44 48 47
f 44 47 43
v -0.2390000 0.0060000 -0.0930000
v -0.2430000 0.0060000 -0.0860718
v -0.2510000 0.0060000 -0.0860718
v -0.2550000 0.0060000 -0.0930000
v -0.2510000 0.0060000 -0.0999282
v -0.2430000 0.0060000 -0.0999282
v -0.2390000 0.0120000 -0.0930000
v -0.2430000 0.0120000 -0.0860718
v -0.2510000 0.0120000 -0.0860718
v -0.2550000 0.0120000 -0.0930000
v -0.2510000 0.0120000 -0.0999282
v -0.2430000 0.0120000 -0.0999282
f 49 50 51
f 49 51 52
f 49 52 53
f 49 53 54
f 60 59 58
f 60 58 57
f 60 57 56
f 60 56 55
f 49 55 56
f 49 56 50
f 50 56 57
f 50 57 51
f 51 57 58
f 51 58 52
f 52 58 59
f 52 59 53
f 53 59 60
f 53 60 54
f 54 60 55
f 54 55 49
v -0.2390000 0.0060000 -0.0630000
v -0.2430000 0.0060000 -0.0560718
v -0.2510000 0.0060000 -0.0560718
v -0.2550000 0.0060000 -0.0630000
v -0.2510000 0.0060000 -0.0699282
v -0.2430000 0.0060000 -0.0699282
v -0.2390000 0.0120000 -0.0630000
v -0.2430000 0.0120000 -0.0560718
v -0.2510000 0.0120000 -0.0560718
v -0.2550000 0.0120000 -0.0630000
v -0.2510000 0.0120000 -0.0699282
v -0.2430000 0.0120000 -0.0699282
f 61 62 63
f 61 63 64
f 61 64 65
f 61 65 66
f 72 71 70
f 72 70 69
f 72 69 68
f 72 68 67
f 61 67 68
f 61 68 62
f 62 68 69
f 62 69 63
f 63 69 70
f 63 70 64
f 64 70 71
f 64 71 65
f 65 71 72
f 65 72 66
f 66 72 67
f 66 67 61
v -0.2590000 0.0000000 0.0530000
v -0.2130000 0.0000000 0.0530000
v -0.2130000 0.0060000 0.0530000
v -0.2590000 0.0060000 0.0530000
v -0.2590000 0.0000000 0.1030000
v -0.2130000 0.0000000 0.1030000
v -0.2130000 0.0060000 0.1030000
v -0.2590000 0.0060000 0.1030000
f 73 76 75
f 73 75 74
f 77 78 79
f 77 79 80
f 73 77 80
f 73 80 76
f 74 75 79
f 74 79 78
f 73 74 78
f 73 78 77
f 76 80 79
f 76 79 75
v -0.2320000 0.0060000 0.0620000
v -0.2200000 0.0060000 0.0620000
v -0.2200000 0.0080000 0.0620000
v -0.2320000 0.0080000 0.0620000
v -0.2320000 0.0060000 0.0940000
v -0.2200000 0.0060000 0.0940000
v -0.2200000 0.0080000 0.0940000
v -0.2320000 0.0080000 0.0940000
f 81 84 83
f 81 83 82
f 85 86 87
f 85 87 88
f 81 85 88
f 81 88 84
f 82 83 87
f 82 87 86
f 81 82 86
f 81 86 85
f 84 88 87
f 84 87 83
v -0.2160000 0.0180000 0.0600000
v -0.2173397 0.0130000 0.0600000
v -0.2210000 0.0093397 0.0600000
v -0.2260000 0.0080000 0.0600000
v -0.2310000 0.0093397 0.0600000
v -0.2346603 0.0130000 0.0600000
v -0.2360000 0.0180000 0.0600000
v -0.2346603 0.0230000 0.0600000
v -0.2310000 0.0266603 0.0600000
v -0.2260000 0.0280000 0.0600000
v -0.2210000 0.0266603 0.0600000
v -0.2173397 0.0230000 0.0600000
v -0.2160000 0.0180000 0.0960000
v -0.2173397 0.0130000 0.0960000
v -0.2210000 0.0093397 0.0960000
v -0.2260000 0.0080000 0.0960000
v -0.2310000 0.0093397 0.0960000
v -0.2346603 0.0130000 0.0960000
v -0.2360000 0.0180000 0.0960000
v -0.2346603 0.0230000 0.0960000
v -0.2310000 0.0266603 0.0960000
v -0.2260000 0.0280000 0.0960000
v -0.2210000 0.0266603 0.0960000
v -0.2173397 0.0230000 0.0960000
f 89 90 91
f 89 91 92
f 89 92 93
f 89 93 94
f 89 94 95
f 89 95 96
f 89 96 97
f 89 97 98
f 89 98 99
f 89 99 100
f 112 111 110
f 112 110 109
f 112 109 108
f 112 108 107
f 112 107 106
f 112 106 105
f 112 105 104
f 112 104 103
f 112 103 102
f 112 102 101
f 89 101 102
f 89 102 90
f 90 102 103
f 90 103 91
f 91 103 104
f 91 104 92
f 92 104 105
f 92 105 93
f 93 105 106
f 93 106 94
f 94 106 107
f 94 107 95
f 95 107 108
f 95 108 96
f 96 108 109
f 96 109 97
f 97 109 110
f 97 110 98
f 98 110 111
f 98 111 99
f 99 111 112
f 99 112 100
f 100 112 101
f 100 101 89
v -0.2160000 0.0120000 0.0620000
v -0.2120000 0.0120000 0.0620000
v -0.2120000 0.0240000 0.0620000
v -0.2160000 0.0240000 0.0620000
v -0.2160000 0.0120000 0.0940000
v -0.2120000 0.0120000 0.0940000
v -0.2120000 0.0240000 0.0940000
v -0.2160000 0.0240000 0.0940000
f 113 116 115
f 113 115 114
f 117 118 119
f 117 119 120
f 113 117 120
f 113 120 116
f 114 115 119
f 114 119 118
f 113 114 118
f 113 118 117
f 116 120 119
f 116 119 115
v -0.2390000 0.0060000 0.0630000
v -0.2430000 0.0060000 0.0699282
v -0.2510000 0.0060000 0.0699282
v -0.2550000 0.0060000 0.0630000
v -0.2510000 0.0060000 0.0560718
v -0.2430000 0.0060000 0.0560718
v -0.2390000 0.0120000 0.0630000
v -0.2430000 0.0120000 0.0699282
v -0.2510000 0.0120000 0.0699282
v -0.2550000 0.0120000 0.0630000
v -0.2510000 0.0120000 0.0560718
v -0.2430000 0.0120000 0.0560718
f 121 122 123
f 121 123 124
f 121 124 125
f 121 125 126
f 132 131 130
f 132 130 129
f 132 129 128
f 132 128 127
f 121 127 128
f 121 128 122
f 122 128 129
f 122 129 123
f 123 129 130
f 123 130 124
f 124 130 131
f 124 131 125
f 125 131 132
f 125 132 126
f 126 132 127
f 126 127 121
v -0.2390000 0.0060000 0.0930000
v -0.2430000 0.0060000 0.0999282
v -0.2510000 0.0060000 0.0999282
v -0.2550000 0.0060000 0.0930000
v -0.2510000 0.0060000 0.0860718
v -0.2430000 0.0060000 0.0860718
v -0.2390000 0.0120000 0.0930000
v -0.2430000 0.0120000 0.0999282
v -0.2510000 0.0120000 0.0999282
v -0.2550000 0.0120000 0.0930000
v -0.2510000 0.0120000 0.0860718
v -0.2430000 0.0120000 0.0860718
f 133 134 135
f 133 135 136
f 133 136 137
f 133 137 138
f 144 143 142
f 144 142 141
f 144 141 140
f 144 140 139
f 133 139 140
f 133 140 134
f 134 140 141
f 134 141 135
f 135 141 142
f 135 142 136
f 136 142 143
f 136 143 137
f 137 143 144
f 137 144 138
f 138 144 139
f 138 139 133
g cassette
v -0.2120000 0.0120000 -0.1300000
v 0.2120000 0.0120000 -0.1300000
v 0.2120000 0.0820000 -0.1300000
v -0.2120000 0.0820000 -0.1300000
v -0.2120000 0.0120000 0.1300000
v 0.2120000 0.0120000 0.1300000
v 0.2120000 0.0820000 0.1300000
v -0.2120000 0.0820000 0.1300000
f 145 148 147
f 145 147 146
f 149 150 151
f 149 151 152
f 145 149 152
f 145 152 148
f 146 147 151
f 146 151 150
f 145 146 150
f 145 150 149
f 148 152 151
f 148 151 147
