# Original Sprocket ERA geometry; metres; Y native mounting normal.
g mount
v -0.1250000 0.0000000 -0.4900000
v -0.0850000 0.0000000 -0.4900000
v -0.0850000 0.0080000 -0.4900000
v -0.1250000 0.0080000 -0.4900000
v -0.1250000 0.0000000 -0.4400000
v -0.0850000 0.0000000 -0.4400000
v -0.0850000 0.0080000 -0.4400000
v -0.1250000 0.0080000 -0.4400000
f 1 4 3
f 1 3 2
f 5 6 7
f 5 7 8
f 1 5 8
f 1 8 4
f 2 3 7
f 2 7 6
f 1 2 6
f 1 6 5
f 4 8 7
f 4 7 3
v -0.1150000 0.0080000 -0.4740000
v -0.0950000 0.0080000 -0.4740000
v -0.0950000 0.0140000 -0.4740000
v -0.1150000 0.0140000 -0.4740000
v -0.1150000 0.0080000 -0.4560000
v -0.0950000 0.0080000 -0.4560000
v -0.0950000 0.0140000 -0.4560000
v -0.1150000 0.0140000 -0.4560000
f 9 12 11
f 9 11 10
f 13 14 15
f 13 15 16
f 9 13 16
f 9 16 12
f 10 11 15
f 10 15 14
f 9 10 14
f 9 14 13
f 12 16 15
f 12 15 11
v -0.0850000 0.0340000 -0.4680000
v -0.0908579 0.0198579 -0.4680000
v -0.1050000 0.0140000 -0.4680000
v -0.1191421 0.0198579 -0.4680000
v -0.1250000 0.0340000 -0.4680000
v -0.1191421 0.0481421 -0.4680000
v -0.1050000 0.0540000 -0.4680000
v -0.0908579 0.0481421 -0.4680000
v -0.0980000 0.0340000 -0.4680000
v -0.1000503 0.0290503 -0.4680000
v -0.1050000 0.0270000 -0.4680000
v -0.1099497 0.0290503 -0.4680000
v -0.1120000 0.0340000 -0.4680000
v -0.1099497 0.0389497 -0.4680000
v -0.1050000 0.0410000 -0.4680000
v -0.1000503 0.0389497 -0.4680000
v -0.0850000 0.0340000 -0.4620000
v -0.0908579 0.0198579 -0.4620000
v -0.1050000 0.0140000 -0.4620000
v -0.1191421 0.0198579 -0.4620000
v -0.1250000 0.0340000 -0.4620000
v -0.1191421 0.0481421 -0.4620000
v -0.1050000 0.0540000 -0.4620000
v -0.0908579 0.0481421 -0.4620000
v -0.0980000 0.0340000 -0.4620000
v -0.1000503 0.0290503 -0.4620000
v -0.1050000 0.0270000 -0.4620000
v -0.1099497 0.0290503 -0.4620000
v -0.1120000 0.0340000 -0.4620000
v -0.1099497 0.0389497 -0.4620000
v -0.1050000 0.0410000 -0.4620000
v -0.1000503 0.0389497 -0.4620000
f 17 18 26
f 17 26 25
f 33 41 42
f 33 42 34
f 17 33 34
f 17 34 18
f 25 26 42
f 25 42 41
f 18 19 27
f 18 27 26
f 34 42 43
f 34 43 35
f 18 34 35
f 18 35 19
f 26 27 43
f 26 43 42
f 19 20 28
f 19 28 27
f 35 43 44
f 35 44 36
f 19 35 36
f 19 36 20
f 27 28 44
f 27 44 43
f 20 21 29
f 20 29 28
f 36 44 45
f 36 45 37
f 20 36 37
f 20 37 21
f 28 29 45
f 28 45 44
f 21 22 30
f 21 30 29
f 37 45 46
f 37 46 38
f 21 37 38
f 21 38 22
f 29 30 46
f 29 46 45
f 22 23 31
f 22 31 30
f 38 46 47
f 38 47 39
f 22 38 39
f 22 39 23
f 30 31 47
f 30 47 46
f 23 24 32
f 23 32 31
f 39 47 48
f 39 48 40
f 23 39 40
f 23 40 24
f 31 32 48
f 31 48 47
f 24 17 25
f 24 25 32
f 40 48 41
f 40 41 33
f 24 40 33
f 24 33 17
f 32 25 41
f 32 41 48
v 0.0850000 0.0000000 -0.4900000
v 0.1250000 0.0000000 -0.4900000
v 0.1250000 0.0080000 -0.4900000
v 0.0850000 0.0080000 -0.4900000
v 0.0850000 0.0000000 -0.4400000
v 0.1250000 0.0000000 -0.4400000
v 0.1250000 0.0080000 -0.4400000
v 0.0850000 0.0080000 -0.4400000
f 49 52 51
f 49 51 50
f 53 54 55
f 53 55 56
f 49 53 56
f 49 56 52
f 50 51 55
f 50 55 54
f 49 50 54
f 49 54 53
f 52 56 55
f 52 55 51
v 0.0950000 0.0080000 -0.4740000
v 0.1150000 0.0080000 -0.4740000
v 0.1150000 0.0140000 -0.4740000
v 0.0950000 0.0140000 -0.4740000
v 0.0950000 0.0080000 -0.4560000
v 0.1150000 0.0080000 -0.4560000
v 0.1150000 0.0140000 -0.4560000
v 0.0950000 0.0140000 -0.4560000
f 57 60 59
f 57 59 58
f 61 62 63
f 61 63 64
f 57 61 64
f 57 64 60
f 58 59 63
f 58 63 62
f 57 58 62
f 57 62 61
f 60 64 63
f 60 63 59
v 0.1250000 0.0340000 -0.4680000
v 0.1191421 0.0198579 -0.4680000
v 0.1050000 0.0140000 -0.4680000
v 0.0908579 0.0198579 -0.4680000
v 0.0850000 0.0340000 -0.4680000
v 0.0908579 0.0481421 -0.4680000
v 0.1050000 0.0540000 -0.4680000
v 0.1191421 0.0481421 -0.4680000
v 0.1120000 0.0340000 -0.4680000
v 0.1099497 0.0290503 -0.4680000
v 0.1050000 0.0270000 -0.4680000
v 0.1000503 0.0290503 -0.4680000
v 0.0980000 0.0340000 -0.4680000
v 0.1000503 0.0389497 -0.4680000
v 0.1050000 0.0410000 -0.4680000
v 0.1099497 0.0389497 -0.4680000
v 0.1250000 0.0340000 -0.4620000
v 0.1191421 0.0198579 -0.4620000
v 0.1050000 0.0140000 -0.4620000
v 0.0908579 0.0198579 -0.4620000
v 0.0850000 0.0340000 -0.4620000
v 0.0908579 0.0481421 -0.4620000
v 0.1050000 0.0540000 -0.4620000
v 0.1191421 0.0481421 -0.4620000
v 0.1120000 0.0340000 -0.4620000
v 0.1099497 0.0290503 -0.4620000
v 0.1050000 0.0270000 -0.4620000
v 0.1000503 0.0290503 -0.4620000
v 0.0980000 0.0340000 -0.4620000
v 0.1000503 0.0389497 -0.4620000
v 0.1050000 0.0410000 -0.4620000
v 0.1099497 0.0389497 -0.4620000
f 65 66 74
f 65 74 73
f 81 89 90
f 81 90 82
f 65 81 82
f 65 82 66
f 73 74 90
f 73 90 89
f 66 67 75
f 66 75 74
f 82 90 91
f 82 91 83
f 66 82 83
f 66 83 67
f 74 75 91
f 74 91 90
f 67 68 76
f 67 76 75
f 83 91 92
f 83 92 84
f 67 83 84
f 67 84 68
f 75 76 92
f 75 92 91
f 68 69 77
f 68 77 76
f 84 92 93
f 84 93 85
f 68 84 85
f 68 85 69
f 76 77 93
f 76 93 92
f 69 70 78
f 69 78 77
f 85 93 94
f 85 94 86
f 69 85 86
f 69 86 70
f 77 78 94
f 77 94 93
f 70 71 79
f 70 79 78
f 86 94 95
f 86 95 87
f 70 86 87
f 70 87 71
f 78 79 95
f 78 95 94
f 71 72 80
f 71 80 79
f 87 95 96
f 87 96 88
f 71 87 88
f 71 88 72
f 79 80 96
f 79 96 95
f 72 65 73
f 72 73 80
f 88 96 89
f 88 89 81
f 72 88 81
f 72 81 65
f 80 73 89
f 80 89 96
v -0.0990000 0.0340000 -0.4680000
v -0.0998038 0.0310000 -0.4680000
v -0.1020000 0.0288038 -0.4680000
v -0.1050000 0.0280000 -0.4680000
v -0.1080000 0.0288038 -0.4680000
v -0.1101962 0.0310000 -0.4680000
v -0.1110000 0.0340000 -0.4680000
v -0.1101962 0.0370000 -0.4680000
v -0.1080000 0.0391962 -0.4680000
v -0.1050000 0.0400000 -0.4680000
v -0.1020000 0.0391962 -0.4680000
v -0.0998038 0.0370000 -0.4680000
v -0.0990000 0.0340000 -0.4620000
v -0.0998038 0.0310000 -0.4620000
v -0.1020000 0.0288038 -0.4620000
v -0.1050000 0.0280000 -0.4620000
v -0.1080000 0.0288038 -0.4620000
v -0.1101962 0.0310000 -0.4620000
v -0.1110000 0.0340000 -0.4620000
v -0.1101962 0.0370000 -0.4620000
v -0.1080000 0.0391962 -0.4620000
v -0.1050000 0.0400000 -0.4620000
v -0.1020000 0.0391962 -0.4620000
v -0.0998038 0.0370000 -0.4620000
f 97 98 99
f 97 99 100
f 97 100 101
f 97 101 102
f 97 102 103
f 97 103 104
f 97 104 105
f 97 105 106
f 97 106 107
f 97 107 108
f 120 119 118
f 120 118 117
f 120 117 116
f 120 116 115
f 120 115 114
f 120 114 113
f 120 113 112
f 120 112 111
f 120 111 110
f 120 110 109
f 97 109 110
f 97 110 98
f 98 110 111
f 98 111 99
f 99 111 112
f 99 112 100
f 100 112 113
f 100 113 101
f 101 113 114
f 101 114 102
f 102 114 115
f 102 115 103
f 103 115 116
f 103 116 104
f 104 116 117
f 104 117 105
f 105 117 118
f 105 118 106
f 106 118 119
f 106 119 107
f 107 119 120
f 107 120 108
f 108 120 109
f 108 109 97
v -0.0950000 0.0340000 -0.4740000
v -0.1000000 0.0253397 -0.4740000
v -0.1100000 0.0253397 -0.4740000
v -0.1150000 0.0340000 -0.4740000
v -0.1100000 0.0426603 -0.4740000
v -0.1000000 0.0426603 -0.4740000
v -0.0950000 0.0340000 -0.4680000
v -0.1000000 0.0253397 -0.4680000
v -0.1100000 0.0253397 -0.4680000
v -0.1150000 0.0340000 -0.4680000
v -0.1100000 0.0426603 -0.4680000
v -0.1000000 0.0426603 -0.4680000
f 121 122 123
f 121 123 124
f 121 124 125
f 121 125 126
f 132 131 130
f 132 130 129
f 132 129 128
f 132 128 127
f 121 127 128
f 121 128 122
f 122 128 129
f 122 129 123
f 123 129 130
f 123 130 124
f 124 130 131
f 124 131 125
f 125 131 132
f 125 132 126
f 126 132 127
f 126 127 121
v -0.1250000 0.0000000 0.4400000
v -0.0850000 0.0000000 0.4400000
v -0.0850000 0.0080000 0.4400000
v -0.1250000 0.0080000 0.4400000
v -0.1250000 0.0000000 0.4900000
v -0.0850000 0.0000000 0.4900000
v -0.0850000 0.0080000 0.4900000
v -0.1250000 0.0080000 0.4900000
f 133 136 135
f 133 135 134
f 137 138 139
f 137 139 140
f 133 137 140
f 133 140 136
f 134 135 139
f 134 139 138
f 133 134 138
f 133 138 137
f 136 140 139
f 136 139 135
v -0.1150000 0.0080000 0.4560000
v -0.0950000 0.0080000 0.4560000
v -0.0950000 0.0140000 0.4560000
v -0.1150000 0.0140000 0.4560000
v -0.1150000 0.0080000 0.4740000
v -0.0950000 0.0080000 0.4740000
v -0.0950000 0.0140000 0.4740000
v -0.1150000 0.0140000 0.4740000
f 141 144 143
f 141 143 142
f 145 146 147
f 145 147 148
f 141 145 148
f 141 148 144
f 142 143 147
f 142 147 146
f 141 142 146
f 141 146 145
f 144 148 147
f 144 147 143
v -0.0850000 0.0340000 0.4620000
v -0.0908579 0.0198579 0.4620000
v -0.1050000 0.0140000 0.4620000
v -0.1191421 0.0198579 0.4620000
v -0.1250000 0.0340000 0.4620000
v -0.1191421 0.0481421 0.4620000
v -0.1050000 0.0540000 0.4620000
v -0.0908579 0.0481421 0.4620000
v -0.0980000 0.0340000 0.4620000
v -0.1000503 0.0290503 0.4620000
v -0.1050000 0.0270000 0.4620000
v -0.1099497 0.0290503 0.4620000
v -0.1120000 0.0340000 0.4620000
v -0.1099497 0.0389497 0.4620000
v -0.1050000 0.0410000 0.4620000
v -0.1000503 0.0389497 0.4620000
v -0.0850000 0.0340000 0.4680000
v -0.0908579 0.0198579 0.4680000
v -0.1050000 0.0140000 0.4680000
v -0.1191421 0.0198579 0.4680000
v -0.1250000 0.0340000 0.4680000
v -0.1191421 0.0481421 0.4680000
v -0.1050000 0.0540000 0.4680000
v -0.0908579 0.0481421 0.4680000
v -0.0980000 0.0340000 0.4680000
v -0.1000503 0.0290503 0.4680000
v -0.1050000 0.0270000 0.4680000
v -0.1099497 0.0290503 0.4680000
v -0.1120000 0.0340000 0.4680000
v -0.1099497 0.0389497 0.4680000
v -0.1050000 0.0410000 0.4680000
v -0.1000503 0.0389497 0.4680000
f 149 150 158
f 149 158 157
f 165 173 174
f 165 174 166
f 149 165 166
f 149 166 150
f 157 158 174
f 157 174 173
f 150 151 159
f 150 159 158
f 166 174 175
f 166 175 167
f 150 166 167
f 150 167 151
f 158 159 175
f 158 175 174
f 151 152 160
f 151 160 159
f 167 175 176
f 167 176 168
f 151 167 168
f 151 168 152
f 159 160 176
f 159 176 175
f 152 153 161
f 152 161 160
f 168 176 177
f 168 177 169
f 152 168 169
f 152 169 153
f 160 161 177
f 160 177 176
f 153 154 162
f 153 162 161
f 169 177 178
f 169 178 170
f 153 169 170
f 153 170 154
f 161 162 178
f 161 178 177
f 154 155 163
f 154 163 162
f 170 178 179
f 170 179 171
f 154 170 171
f 154 171 155
f 162 163 179
f 162 179 178
f 155 156 164
f 155 164 163
f 171 179 180
f 171 180 172
f 155 171 172
f 155 172 156
f 163 164 180
f 163 180 179
f 156 149 157
f 156 157 164
f 172 180 173
f 172 173 165
f 156 172 165
f 156 165 149
f 164 157 173
f 164 173 180
v 0.0850000 0.0000000 0.4400000
v 0.1250000 0.0000000 0.4400000
v 0.1250000 0.0080000 0.4400000
v 0.0850000 0.0080000 0.4400000
v 0.0850000 0.0000000 0.4900000
v 0.1250000 0.0000000 0.4900000
v 0.1250000 0.0080000 0.4900000
v 0.0850000 0.0080000 0.4900000
f 181 184 183
f 181 183 182
f 185 186 187
f 185 187 188
f 181 185 188
f 181 188 184
f 182 183 187
f 182 187 186
f 181 182 186
f 181 186 185
f 184 188 187
f 184 187 183
v 0.0950000 0.0080000 0.4560000
v 0.1150000 0.0080000 0.4560000
v 0.1150000 0.0140000 0.4560000
v 0.0950000 0.0140000 0.4560000
v 0.0950000 0.0080000 0.4740000
v 0.1150000 0.0080000 0.4740000
v 0.1150000 0.0140000 0.4740000
v 0.0950000 0.0140000 0.4740000
f 189 192 191
f 189 191 190
f 193 194 195
f 193 195 196
f 189 193 196
f 189 196 192
f 190 191 195
f 190 195 194
f 189 190 194
f 189 194 193
f 192 196 195
f 192 195 191
v 0.1250000 0.0340000 0.4620000
v 0.1191421 0.0198579 0.4620000
v 0.1050000 0.0140000 0.4620000
v 0.0908579 0.0198579 0.4620000
v 0.0850000 0.0340000 0.4620000
v 0.0908579 0.0481421 0.4620000
v 0.1050000 0.0540000 0.4620000
v 0.1191421 0.0481421 0.4620000
v 0.1120000 0.0340000 0.4620000
v 0.1099497 0.0290503 0.4620000
v 0.1050000 0.0270000 0.4620000
v 0.1000503 0.0290503 0.4620000
v 0.0980000 0.0340000 0.4620000
v 0.1000503 0.0389497 0.4620000
v 0.1050000 0.0410000 0.4620000
v 0.1099497 0.0389497 0.4620000
v 0.1250000 0.0340000 0.4680000
v 0.1191421 0.0198579 0.4680000
v 0.1050000 0.0140000 0.4680000
v 0.0908579 0.0198579 0.4680000
v 0.0850000 0.0340000 0.4680000
v 0.0908579 0.0481421 0.4680000
v 0.1050000 0.0540000 0.4680000
v 0.1191421 0.0481421 0.4680000
v 0.1120000 0.0340000 0.4680000
v 0.1099497 0.0290503 0.4680000
v 0.1050000 0.0270000 0.4680000
v 0.1000503 0.0290503 0.4680000
v 0.0980000 0.0340000 0.4680000
v 0.1000503 0.0389497 0.4680000
v 0.1050000 0.0410000 0.4680000
v 0.1099497 0.0389497 0.4680000
f 197 198 206
f 197 206 205
f 213 221 222
f 213 222 214
f 197 213 214
f 197 214 198
f 205 206 222
f 205 222 221
f 198 199 207
f 198 207 206
f 214 222 223
f 214 223 215
f 198 214 215
f 198 215 199
f 206 207 223
f 206 223 222
f 199 200 208
f 199 208 207
f 215 223 224
f 215 224 216
f 199 215 216
f 199 216 200
f 207 208 224
f 207 224 223
f 200 201 209
f 200 209 208
f 216 224 225
f 216 225 217
f 200 216 217
f 200 217 201
f 208 209 225
f 208 225 224
f 201 202 210
f 201 210 209
f 217 225 226
f 217 226 218
f 201 217 218
f 201 218 202
f 209 210 226
f 209 226 225
f 202 203 211
f 202 211 210
f 218 226 227
f 218 227 219
f 202 218 219
f 202 219 203
f 210 211 227
f 210 227 226
f 203 204 212
f 203 212 211
f 219 227 228
f 219 228 220
f 203 219 220
f 203 220 204
f 211 212 228
f 211 228 227
f 204 197 205
f 204 205 212
f 220 228 221
f 220 221 213
f 204 220 213
f 204 213 197
f 212 205 221
f 212 221 228
v -0.0990000 0.0340000 0.4620000
v -0.0998038 0.0310000 0.4620000
v -0.1020000 0.0288038 0.4620000
v -0.1050000 0.0280000 0.4620000
v -0.1080000 0.0288038 0.4620000
v -0.1101962 0.0310000 0.4620000
v -0.1110000 0.0340000 0.4620000
v -0.1101962 0.0370000 0.4620000
v -0.1080000 0.0391962 0.4620000
v -0.1050000 0.0400000 0.4620000
v -0.1020000 0.0391962 0.4620000
v -0.0998038 0.0370000 0.4620000
v -0.0990000 0.0340000 0.4680000
v -0.0998038 0.0310000 0.4680000
v -0.1020000 0.0288038 0.4680000
v -0.1050000 0.0280000 0.4680000
v -0.1080000 0.0288038 0.4680000
v -0.1101962 0.0310000 0.4680000
v -0.1110000 0.0340000 0.4680000
v -0.1101962 0.0370000 0.4680000
v -0.1080000 0.0391962 0.4680000
v -0.1050000 0.0400000 0.4680000
v -0.1020000 0.0391962 0.4680000
v -0.0998038 0.0370000 0.4680000
f 229 230 231
f 229 231 232
f 229 232 233
f 229 233 234
f 229 234 235
f 229 235 236
f 229 236 237
f 229 237 238
f 229 238 239
f 229 239 240
f 252 251 250
f 252 250 249
f 252 249 248
f 252 248 247
f 252 247 246
f 252 246 245
f 252 245 244
f 252 244 243
f 252 243 242
f 252 242 241
f 229 241 242
f 229 242 230
f 230 242 243
f 230 243 231
f 231 243 244
f 231 244 232
f 232 244 245
f 232 245 233
f 233 245 246
f 233 246 234
f 234 246 247
f 234 247 235
f 235 247 248
f 235 248 236
f 236 248 249
f 236 249 237
f 237 249 250
f 237 250 238
f 238 250 251
f 238 251 239
f 239 251 252
f 239 252 240
f 240 252 241
f 240 241 229
v -0.0950000 0.0340000 0.4680000
v -0.1000000 0.0253397 0.4680000
v -0.1100000 0.0253397 0.4680000
v -0.1150000 0.0340000 0.4680000
v -0.1100000 0.0426603 0.4680000
v -0.1000000 0.0426603 0.4680000
v -0.0950000 0.0340000 0.4740000
v -0.1000000 0.0253397 0.4740000
v -0.1100000 0.0253397 0.4740000
v -0.1150000 0.0340000 0.4740000
v -0.1100000 0.0426603 0.4740000
v -0.1000000 0.0426603 0.4740000
f 253 254 255
f 253 255 256
f 253 256 257
f 253 257 258
f 264 263 262
f 264 262 261
f 264 261 260
f 264 260 259
f 253 259 260
f 253 260 254
f 254 260 261
f 254 261 255
f 255 261 262
f 255 262 256
f 256 262 263
f 256 263 257
f 257 263 264
f 257 264 258
f 258 264 259
f 258 259 253
g cassette
v -0.1500000 0.0080000 -0.4500000
v -0.1500000 0.0080000 0.0000000
v -0.1500000 0.0080000 0.4500000
v -0.1500000 0.0780000 0.4300000
v -0.1500000 0.0780000 0.0000000
v -0.1500000 0.0780000 -0.4300000
v 0.1500000 0.0080000 -0.4500000
v 0.1500000 0.0080000 0.0000000
v 0.1500000 0.0080000 0.4500000
v 0.1500000 0.0780000 0.4300000
v 0.1500000 0.0780000 0.0000000
v 0.1500000 0.0780000 -0.4300000
f 265 266 269
f 265 269 270
f 266 267 268
f 266 268 269
f 271 276 275
f 271 275 272
f 272 275 274
f 272 274 273
f 265 271 272
f 265 272 266
f 266 272 273
f 266 273 267
f 270 269 275
f 270 275 276
f 269 268 274
f 269 274 275
f 265 270 276
f 265 276 271
f 267 273 274
f 267 274 268
